<svg id="Capa_1" enable-background="new 0 0 512 512" height="512" viewBox="0 0 512 512" width="512" xmlns="http://www.w3.org/2000/svg"><g><g><path d="m402 157h60v150h-60z" fill="#2e2654"/><path d="m467 172h-70c-8.284 0-15-6.716-15-15s6.716-15 15-15h70c8.284 0 15 6.716 15 15s-6.716 15-15 15z" fill="#c36f50"/><path d="m457.034 291.85-150-135c-5.703-5.134-14.365-5.134-20.068 0l-150 135c-3.161 2.845-4.966 6.897-4.966 11.15v194h330v-194c0-4.253-1.805-8.305-4.966-11.15z" fill="#453d81"/><g><path d="m462 303c0-4.252-1.805-8.305-4.966-11.149l-150-135c-2.852-2.567-6.443-3.85-10.034-3.85v344h165z" fill="#2e2654"/></g><path d="m496.995 352c-3.575 0-7.163-1.271-10.029-3.851l-189.966-170.968-189.965 170.969c-6.158 5.542-15.642 5.043-21.184-1.115s-5.042-15.642 1.115-21.184l200-180c5.703-5.134 14.365-5.134 20.068 0l200 180c6.158 5.542 6.657 15.026 1.115 21.184-2.961 3.29-7.049 4.965-11.154 4.965z" fill="#e6a551"/><path d="m507.034 325.851-200-180c-2.852-2.567-6.443-3.85-10.034-3.85v35.18l189.966 170.969c2.866 2.58 6.454 3.851 10.029 3.851 4.104 0 8.192-1.675 11.154-4.965 5.542-6.159 5.043-15.643-1.115-21.185z" fill="#c36f50"/><path d="m257 362h-60c-8.284 0-15 6.716-15 15v120h90v-120c0-8.284-6.716-15-15-15z" fill="#5e54ac"/><path d="m212 392h30v105h-30z" fill="#fff58c"/><path d="m397 452h-60c-8.284 0-15-6.716-15-15v-60c0-8.284 6.716-15 15-15h60c8.284 0 15 6.716 15 15v60c0 8.284-6.716 15-15 15z" fill="#453d81"/><path d="m297 342c-24.813 0-45-20.187-45-45s20.187-45 45-45 45 20.187 45 45-20.187 45-45 45z" fill="#5e54ac"/><g><path d="m342 297c0-24.813-20.187-45-45-45v90c24.813 0 45-20.187 45-45z" fill="#453d81"/></g><g><path d="m257 25h-10v-10c0-8.284-6.716-15-15-15s-15 6.716-15 15v10h-10c-8.284 0-15 6.716-15 15s6.716 15 15 15h10v10c0 8.284 6.716 15 15 15s15-6.716 15-15v-10h10c8.284 0 15-6.716 15-15s-6.716-15-15-15z" fill="#ffc85a"/><path d="m497 57h-10v-10c0-8.284-6.716-15-15-15s-15 6.716-15 15v10h-10c-8.284 0-15 6.716-15 15s6.716 15 15 15h10v10c0 8.284 6.716 15 15 15s15-6.716 15-15v-10h10c8.284 0 15-6.716 15-15s-6.716-15-15-15z" fill="#ffc85a"/><path d="m65 257h-10v-10c0-8.284-6.716-15-15-15s-15 6.716-15 15v10h-10c-8.284 0-15 6.716-15 15s6.716 15 15 15h10v10c0 8.284 6.716 15 15 15s15-6.716 15-15v-10h10c8.284 0 15-6.716 15-15s-6.716-15-15-15z" fill="#fff58c"/></g><path d="m477 512h-360c-8.284 0-15-6.716-15-15s6.716-15 15-15h360c8.284 0 15 6.716 15 15s-6.716 15-15 15z" fill="#9ccd79"/><g><path d="m477 482h-180v30h180c8.284 0 15-6.716 15-15s-6.716-15-15-15z" fill="#70a53b"/></g><path d="m352 392h30v30h-30z" fill="#ffc85a"/><circle cx="297" cy="297" fill="#fff58c" r="15"/><g><g><path d="m297 282v30c8.271 0 15-6.729 15-15s-6.729-15-15-15z" fill="#ffc85a"/></g></g></g><g><g><g><g><path d="m110.485 217.594c-60.922 0-110.485-49.564-110.485-110.486 0-49.805 33.617-93.637 81.751-106.591 5.758-1.551 11.887.458 15.612 5.114s4.338 11.076 1.562 16.354c-6.135 11.663-9.246 24.24-9.246 37.381 0 44.38 36.105 80.485 80.485 80.485 6.836 0 13.88-.963 20.938-2.862 5.758-1.552 11.887.458 15.612 5.114s4.338 11.076 1.562 16.354c-19.19 36.477-56.66 59.137-97.791 59.137z" fill="#fff58c"/></g></g></g><path d="m208.275 158.457c2.776-5.277 2.163-11.697-1.562-16.354-3.725-4.656-9.853-6.666-15.612-5.114-7.057 1.899-14.102 2.862-20.938 2.862-25.209 0-47.738-11.658-62.507-29.857l-75.231 75.231c20.004 19.989 47.613 32.369 78.059 32.369 41.132 0 78.602-22.66 97.791-59.137z" fill="#ffc85a"/></g></g></svg>