<svg id="Capa_1" enable-background="new 0 0 512 512" height="512" viewBox="0 0 512 512" width="512" xmlns="http://www.w3.org/2000/svg"><g><g><path d="m512 255.608c.111 73.724-30.941 140.192-80.704 186.963l-.02.008c-112.596 44.596-237.956 44.596-350.552 0l-.02-.008c-49.675-46.688-80.704-113.003-80.704-186.571 0-141.215 114.335-255.721 255.485-255.999 140.97-.278 256.303 114.636 256.515 255.607z" fill="#654baa"/><g><g><path d="m512 256c0 65.237-24.405 124.779-64.576 169.984-5.131 5.771-10.507 11.307-16.128 16.587h-.011c-112.601 44.601-237.969 44.601-350.57 0h-.011c-5.621-5.28-10.997-10.816-16.128-16.587-40.171-45.205-64.576-104.747-64.576-169.984 0-46.219 12.245-89.568 33.675-126.997 44.128 77.066 127.168 129.002 222.325 129.002s178.208-51.936 222.325-129.003c21.43 37.43 33.675 80.779 33.675 126.998z" fill="#513390"/></g></g></g><g><g><path d="m444.416 416.085-34.88-7.947 26.261-24.288-35.733-1.728 21.611-28.501-35.477 4.533 16.341-31.829-34.176 10.603 10.603-34.165-31.819 16.341 4.523-35.488-28.501 21.611-1.728-35.733-24.288 26.272-7.947-34.88-19.339 30.091-13.867-32.972-13.867 32.971-19.339-30.091-7.947 34.88-24.288-26.272-1.728 35.733-28.501-21.611 4.533 35.488-31.829-16.352 10.603 34.176-34.176-10.603 16.352 31.829-35.488-4.533 21.611 28.501-35.733 1.728 26.261 24.288-34.88 7.947 30.101 19.339-16.981 7.147c45.803 43.062 107.467 69.43 175.296 69.43s129.493-26.368 175.296-69.429l-16.981-7.147z" fill="#fdd425"/><path d="m414.315 435.424 16.981 7.147c-45.803 43.061-107.467 69.429-175.296 69.429v-253.995l13.867 32.971 19.339-30.091 7.947 34.88 24.288-26.272 1.728 35.733 28.501-21.611-4.523 35.488 31.819-16.341-10.603 34.165 34.176-10.603-16.341 31.829 35.477-4.533-21.611 28.501 35.733 1.728-26.261 24.288 34.88 7.947z" fill="#feb123"/><path d="m392.299 449.291c0 8.491-.779 16.8-2.272 24.864-38.976 24-84.886 37.845-134.027 37.845s-95.051-13.845-134.027-37.845c-1.493-8.064-2.272-16.373-2.272-24.864 0-75.264 61.024-136.288 136.299-136.288 37.643 0 71.723 15.253 96.384 39.915 24.661 24.671 39.915 58.741 39.915 96.373z" fill="#feb123"/><path d="m392.299 449.291c0 8.491-.779 16.8-2.272 24.864-38.976 24-84.886 37.845-134.027 37.845v-198.997c75.285 0 136.299 61.024 136.299 136.288z" fill="#fc9f0b"/></g><g><g><path d="m72.952 175.516h1.626c7.203 0 13.042-5.839 13.042-13.042v-1.626h9.297v1.626c0 7.203 5.839 13.042 13.042 13.042h1.626v9.297h-1.626c-7.203 0-13.042 5.839-13.042 13.042v1.626h-9.297v-1.626c0-7.203-5.839-13.042-13.042-13.042h-1.626z" fill="#fff"/></g></g><g><g><path d="m402.618 166.1h1.626c7.203 0 13.042-5.839 13.042-13.042v-1.626h9.297v1.626c0 7.203 5.839 13.042 13.042 13.042h1.626v9.297h-1.626c-7.203 0-13.042 5.839-13.042 13.042v1.626h-9.297v-1.626c0-7.203-5.839-13.042-13.042-13.042h-1.626z" fill="#fff"/></g></g><g><g><path d="m431.737 299.144h1.626c7.203 0 13.042-5.839 13.042-13.042v-1.626h9.297v1.626c0 7.203 5.839 13.042 13.042 13.042h1.626v9.297h-1.626c-7.203 0-13.042 5.839-13.042 13.042v1.626h-9.297v-1.626c0-7.203-5.839-13.042-13.042-13.042h-1.626z" fill="#fff"/></g></g><g><g><path d="m28.511 305.44h1.626c7.203 0 13.042-5.839 13.042-13.042v-1.626h9.297v1.626c0 7.203 5.839 13.042 13.042 13.042h1.626v9.297h-1.626c-7.203 0-13.042 5.839-13.042 13.042v1.626h-9.297v-1.626c0-7.203-5.839-13.042-13.042-13.042h-1.626z" fill="#fff"/></g></g></g><g><g><path d="m323.285 114.355c0 4.719-.341 9.337-.993 13.868-1.225 8.598-3.588 16.84-6.923 24.553-.45 1.066-.928 2.109-1.421 3.153-4.937 10.388-11.664 19.762-19.783 27.707-.652.645-1.305 1.269-1.979 1.878-17.476 16.209-40.896 26.03-66.64 25.834-.004-.001-.007-.003-.01-.004l-.011-.011c-53.259-53.68-53.254-140.269.011-193.943.254-.014.508-.014.768-.014 3.211 0 6.365.152 9.497.471 22.647 2.189 42.988 12.164 58.364 27.236 8.119 7.952 14.854 17.333 19.783 27.721 4.089 8.605 6.952 17.92 8.351 27.7.645 4.521.986 9.153.986 13.851z" fill="#0076ff"/><path d="m148.678 114.368c0 53.562 34.749 96.982 77.623 96.982v-193.974c-42.873 0-77.623 43.42-77.623 96.992z" fill="#0092ff"/><path d="m129.309 114.358c0 1.718.041 3.425.133 5.122.153 2.955.44 5.868.859 8.741 1.391 9.784 4.253 19.098 8.343 27.706 1.053 2.219 2.188 4.396 3.404 6.523 4.468 7.811 9.999 14.937 16.378 21.184 3.732 3.65 7.76 7.003 12.033 10.019 15.591 11.011 34.577 17.523 55.075 17.687-12.442-.245-23.964-6.758-33.432-17.687-2.617-3.016-5.071-6.369-7.351-10.019-3.916-6.257-7.3-13.372-10.029-21.184-.746-2.126-1.441-4.304-2.086-6.523-2.505-8.618-4.253-17.922-5.112-27.706-.256-2.873-.429-5.786-.511-8.741-.061-1.697-.092-3.404-.092-5.122 0-4.703.205-9.324.603-13.853.143-1.687.317-3.353.521-4.999.961-7.964 2.515-15.581 4.59-22.707 3.026-10.397 7.136-19.762 12.115-27.716 10.53-16.869 24.905-27.369 40.782-27.696-26.122.204-49.769 10.725-67.098 27.696-8.128 7.944-14.855 17.319-19.793 27.716-3.384 7.126-5.93 14.743-7.494 22.707-.327 1.646-.613 3.313-.849 4.999-.651 4.519-.989 9.15-.989 13.853z" fill="#00b9ff"/><path d="m226.302 127.168v24.874h19.762c6.87 0 12.442 5.572 12.442 12.442 0 5.807 2.351 11.062 6.165 14.876 3.803 3.803 9.058 6.155 14.865 6.155h12.647c.675-.614 1.329-1.237 1.983-1.881 8.118-7.944 14.845-17.319 19.783-27.706.491-1.043.971-2.086 1.421-3.149-1.319-.48-2.74-.736-4.233-.736h-13.966c-6.87 0-12.432-5.562-12.432-12.432 0-3.435-1.39-6.543-3.65-8.792-2.249-2.259-5.357-3.65-8.792-3.65h-45.995z" fill="#00ca7f"/><path d="m213.727 139.61c0 3.435 1.391 6.543 3.65 8.793 2.249 2.249 5.357 3.64 8.792 3.64h.133v-24.874h-.133c-6.87-.001-12.442 5.571-12.442 12.441z" fill="#84f600"/><path d="m157.312 46.207h24.752c3.128 0 5.95 1.268 7.995 3.312 2.045 2.045 3.313 4.866 3.313 7.995 0 7.248 5.879 13.117 13.117 13.117h43.88c6.236 0 11.307-5.061 11.307-11.307v-1.81c0-3.129-1.268-5.95-3.313-7.995-2.055-2.045-4.877-3.312-7.995-3.312s-5.95-1.268-7.995-3.313-3.313-4.867-3.313-7.995c0-6.022-1.155-11.778-3.261-17.053-3.128-.317-6.288-.47-9.498-.47-.256 0-.511 0-.767.01-26.122.204-49.769 10.725-67.098 27.696-.377.368-.756.746-1.124 1.125z" fill="#00ca7f"/><path d="m129.309 114.358c0 1.718.041 3.425.133 5.122h37.572c-.061-1.697 2.908-3.404 2.908-5.122 0-4.703.205-9.324.603-13.853.143-1.687-2.683-3.353-2.479-4.999h-36.896c-.327 1.646-.613 3.313-.849 4.999-.654 4.519-.992 9.15-.992 13.853z" fill="#adff43"/><path d="m266.194 93.475c0 6.619 5.366 11.986 11.986 11.986h17.639c6.62 0 11.986-5.366 11.986-11.986 0-6.619-5.366-11.986-11.986-11.986h-17.639c-6.62 0-11.986 5.366-11.986 11.986z" fill="#00ca7f"/><path d="m142.048 162.45c4.468 7.811 9.999 14.937 16.378 21.184 3.732 3.65 7.76 7.003 12.033 10.019h21.643c-2.617-3.016 1.929-6.369-.351-10.019-3.916-6.257-14.3-13.372-17.029-21.184z" fill="#adff43"/><path d="m157.312 46.207h24.752c.644 0 1.278.051 1.902.163 2.362.399 4.468 1.523 6.093 3.149 2.045 2.045 3.313 4.866 3.313 7.995 0 7.248 5.879 13.117 13.117 13.117h19.813v-53.255c-.256 0-.511 0-.767.01-26.122.204-49.769 10.725-67.098 27.696-.378.368-.757.746-1.125 1.125z" fill="#84f600"/><path d="m157.312 46.207h24.752c.644 0 1.278.051 1.902.163.256-.429.521-.859.787-1.288 10.53-16.869 24.905-27.369 40.782-27.696-26.122.204-49.769 10.725-67.098 27.696-.378.368-.757.746-1.125 1.125z" fill="#adff43"/><g fill="#84f600"><path d="m167.526 100.505c-.399 4.529-.603 9.15-.603 13.853 0 1.718.031 3.425.092 5.122h16.184c6.615 0 11.982-5.368 11.982-11.982 0-6.625-5.368-11.992-11.982-11.992h-15.152c-.204 1.646-.378 3.312-.521 4.999z"/><path d="m194.956 162.45h-20.233c2.73 7.811 6.114 14.927 10.029 21.184 2.28 3.65 4.734 7.003 7.351 10.019h2.852c4.304 0 8.21-1.748 11.031-4.57 2.822-2.822 4.57-6.717 4.57-11.031.001-8.619-6.982-15.602-15.6-15.602z"/></g></g></g><g><path d="m239.078 119.193c0 3.362.243 6.663.714 9.884.99 6.987 3.032 13.63 5.943 19.768 3.517 7.405 8.321 14.095 14.115 19.761 12.357 12.114 29.234 19.62 47.871 19.768.175.007.357.007.539.007 5.976 0 11.771-.755 17.296-2.183 11.919-3.066 22.591-9.231 31.114-17.592.95-.936 1.873-1.893 2.776-2.877 4.561-5.006 8.395-10.693 11.333-16.884 2.297-4.824 4.049-9.952 5.174-15.315.31-1.469.566-2.951.782-4.454.465-3.221.707-6.522.707-9.884 0-3.349-.243-6.657-.701-9.877-.997-6.98-3.039-13.623-5.963-19.761-1.624-3.423-3.517-6.684-5.653-9.763-2.5-3.605-5.336-6.953-8.456-10.012-12.471-12.229-29.558-19.761-48.41-19.761-.182 0-.364 0-.539.007-18.636.148-35.501 7.647-47.864 19.755-5.801 5.673-10.598 12.35-14.122 19.775-2.911 6.138-4.952 12.781-5.943 19.761-.47 3.221-.713 6.529-.713 9.877z" fill="#2d1461"/><path d="m239.078 119.193c0 3.362.243 6.663.714 9.884.99 6.987 3.032 13.63 5.943 19.768 3.517 7.405 8.321 14.095 14.115 19.761 12.357 12.114 29.234 19.62 47.871 19.768.175.007.357.007.539.007v-138.363c-.182 0-.364 0-.539.007-18.636.148-35.501 7.647-47.864 19.755-5.801 5.673-10.598 12.35-14.122 19.775-2.911 6.138-4.952 12.781-5.943 19.761-.471 3.221-.714 6.529-.714 9.877z" fill="#513390"/><g><path d="m253.43 119.195c0 2.667.191 5.282.561 7.837.786 5.533 2.403 10.801 4.714 15.667 2.786 5.869 6.596 11.171 11.184 15.661 9.798 9.6 23.174 15.548 37.943 15.667.139.007.284.007.429.007 4.734 0 9.329-.601 13.706-1.73 9.448-2.43 17.906-7.315 24.66-13.944.753-.739 1.486-1.499 2.199-2.278 3.618-3.968 6.655-8.477 8.986-13.383 1.822-3.823 3.209-7.89 4.1-12.142.244-1.162.449-2.337.621-3.526.37-2.555.561-5.17.561-7.837 0-2.654-.191-5.275-.555-7.83-.792-5.533-2.41-10.795-4.727-15.661-1.287-2.714-2.786-5.295-4.483-7.738-1.981-2.859-4.225-5.513-6.701-7.936-9.884-9.692-23.425-15.661-38.366-15.661-.145 0-.29 0-.429.007-14.769.112-28.139 6.061-37.937 15.654-4.595 4.496-8.398 9.791-11.191 15.674-2.311 4.866-3.928 10.128-4.714 15.661-.369 2.555-.561 5.176-.561 7.831z" fill="#99989b"/><path d="m253.43 119.201c0 30.278 24.547 54.826 54.832 54.826v-109.658c-30.284 0-54.832 24.547-54.832 54.832z" fill="#aeadb2"/><path d="m253.43 119.195c0 2.667.191 5.282.561 7.837.786 5.533 2.403 10.801 4.714 15.667 2.786 5.869 6.596 11.171 11.184 15.661 9.798 9.6 23.174 15.548 37.943 15.667-8.979-.178-17.107-6.12-23.062-15.667-2.813-4.496-5.143-9.791-6.847-15.661-1.413-4.872-2.403-10.135-2.892-15.667-.224-2.555-.337-5.176-.337-7.837 0-2.654.112-5.269.337-7.83.053-.627.119-1.254.185-1.868.535-4.853 1.452-9.481 2.707-13.792.938-3.235 2.067-6.285 3.354-9.131 1.056-2.331 2.225-4.523 3.493-6.543 5.955-9.534 14.083-15.469 23.062-15.654-14.769.112-28.139 6.061-37.937 15.654-4.595 4.496-8.398 9.791-11.191 15.674-2.311 4.866-3.928 10.128-4.714 15.661-.368 2.553-.56 5.174-.56 7.829z" fill="#c8c6cb"/><path d="m333.893 109.647c0 12.043 9.765 21.808 21.814 21.808 2.159 0 4.239-.31 6.206-.898.244-1.162.449-2.337.621-3.526.37-2.555.561-5.17.561-7.837 0-2.654-.191-5.275-.555-7.83-.792-5.533-2.41-10.795-4.727-15.661-1.287-2.714-2.786-5.295-4.483-7.738-10.933 1.182-19.437 10.439-19.437 21.682z" fill="#8a8499"/><path d="m275.218 109.496c.621.099 1.248.152 1.895.152 6.582 0 11.917-5.334 11.917-11.91 0-5.117-3.222-9.481-7.751-11.164-1.287 2.846-2.416 5.896-3.354 9.131-1.254 4.31-2.172 8.938-2.707 13.791z" fill="#99989b"/><path d="m265.202 97.737c0 5.929 4.338 10.854 10.016 11.759.535-4.853 1.452-9.481 2.707-13.792.938-3.235 2.067-6.285 3.354-9.131-1.301-.489-2.7-.753-4.166-.753-6.576 0-11.911 5.335-11.911 11.917z" fill="#aeadb2"/><path d="m317.779 85.823c0 3.433 2.783 6.216 6.216 6.216s6.216-2.783 6.216-6.216-2.783-6.216-6.216-6.216-6.216 2.783-6.216 6.216z" fill="#8a8499"/><path d="m317.935 161.7c0 4.074 1.525 7.784 4.034 10.603 9.448-2.43 17.906-7.315 24.66-13.944.753-.739 1.486-1.499 2.199-2.278-2.265-6.041-8.095-10.339-14.934-10.339-8.815.001-15.959 7.144-15.959 15.958z" fill="#8a8499"/><path d="m287.329 148.19c0 3.433 2.783 6.216 6.216 6.216s6.216-2.783 6.216-6.216-2.783-6.216-6.216-6.216-6.216 2.783-6.216 6.216z" fill="#99989b"/><path d="m308.263 101.652v28.548c7.692-.225 13.852-6.53 13.852-14.274-.001-7.744-6.161-14.049-13.852-14.274z" fill="#8a8499"/><path d="m293.546 115.926c0 7.89 6.398 14.287 14.287 14.287.145 0 .29 0 .429-.013v-28.548c-.139-.013-.284-.013-.429-.013-7.889 0-14.287 6.398-14.287 14.287z" fill="#99989b"/></g></g></g></svg>