<svg id="Capa_1" enable-background="new 0 0 512 512" height="512" viewBox="0 0 512 512" width="512" xmlns="http://www.w3.org/2000/svg"><g><g><path d="m511.992 253.996c.537 70.157-27.145 133.849-72.387 180.394l-.043.018c-117.35 49.604-249.779 49.613-367.136.025-44.821-46.102-72.426-109.046-72.426-178.433 0-141.252 114.395-255.781 255.595-256 140.325-.217 255.323 113.675 256.397 253.996z" fill="#654baa"/><g><g><path d="m512 256c0 65.237-24.405 124.779-64.576 169.984-2.549 2.859-5.152 5.664-7.819 8.416 0-.011 0-.011 0-.011l-.043.018c-117.35 49.604-249.779 49.613-367.136.025-2.677-2.763-5.301-5.579-7.851-8.448-40.17-45.205-64.575-104.747-64.575-169.984 0-46.219 12.245-89.568 33.675-126.997 44.128 77.066 127.168 129.002 222.325 129.002s178.208-51.936 222.325-129.003c21.43 37.43 33.675 80.779 33.675 126.998z" fill="#513390"/></g></g></g><g><g><g><path d="m459.083 347.488c0 9.877-.704 19.563-2.08 29.024-2.901 20.437-8.864 39.904-17.397 57.877-46.507 47.872-111.585 77.611-183.606 77.611-72 0-137.056-29.728-183.573-77.568-6.72-14.123-11.84-29.152-15.136-44.864-.896-4.299-1.664-8.651-2.293-13.056-1.376-9.461-2.08-19.147-2.08-29.024 0-9.824.704-19.541 2.059-29.003 2.933-20.491 8.917-39.979 17.504-57.995 4.768-10.059 10.315-19.616 16.608-28.661 7.328-10.592 15.648-20.427 24.811-29.397 36.608-35.893 86.763-58.005 142.101-58.005.533 0 1.077 0 1.589.032 54.699.416 104.224 22.443 140.512 57.973 17.013 16.651 31.104 36.267 41.44 58.059 8.565 18.016 14.549 37.504 17.461 57.995 1.376 9.461 2.08 19.178 2.08 29.002z" fill="#fdd425"/><path d="m459.083 347.509c0 31.083-6.987 60.533-19.467 86.869l-.011.011c-27.659 28.469-61.877 50.517-100.213 63.733-26.144 8.993-54.197 13.878-83.392 13.878v-367.573c112.171 0 203.083 90.922 203.083 203.082z" fill="#feb123"/><path d="m459.083 347.488c0 9.877-.704 19.563-2.08 29.024-2.901 20.427-8.864 39.893-17.387 57.867l-.011.011c-27.659 28.469-61.877 50.517-100.213 63.733 1.227-1.824 2.432-3.68 3.616-5.579 10.411-16.651 19.04-36.267 25.355-58.005 5.237-18.048 8.896-37.536 10.709-58.027.832-9.461 1.248-19.168 1.248-29.024 0-9.824-.416-19.509-1.248-29.003-.192-2.325-.437-4.64-.683-6.923-1.984-17.963-5.387-35.115-10.027-51.072-3.477-11.989-7.659-23.285-12.427-33.824-3.904-8.629-8.235-16.747-12.928-24.235-22.059-35.307-52.16-57.291-85.419-57.973 54.699.416 104.224 22.443 140.512 57.973 17.013 16.651 31.104 36.267 41.44 58.059 8.565 18.016 14.549 37.504 17.461 57.995 1.378 9.462 2.082 19.179 2.082 29.003z" fill="#fc9f0b"/><g fill="#feb123"><path d="m161.073 312.13c0 44.603-36.166 80.768-80.793 80.768-7.996 0-15.699-1.149-22.986-3.325-.905-4.304-1.663-8.657-2.299-13.058-1.369-9.463-2.078-19.147-2.078-29.026 0-9.83.709-19.538 2.054-29.001 2.934-20.492 8.925-39.981 17.508-58.003 4.768-10.051 10.319-19.611 16.604-28.659 40.495 4.377 71.99 38.661 71.99 80.304z"/><circle cx="197.732" cy="223.89" r="23.022"/><path d="m220.181 504.917c0 1.536-.053 3.061-.181 4.565-38.773-5.451-74.763-19.595-105.92-40.395 10.773-14.144 27.819-23.275 46.997-23.275 32.64.001 59.104 26.465 59.104 59.105z"/><path d="m256 282.518v105.735c-28.488-.832-51.302-24.184-51.302-52.868s22.814-52.036 51.302-52.867z"/></g></g><g><g><path d="m420.422 347.514c0 90.794-73.609 164.403-164.422 164.403v-328.826c90.813 0 164.422 73.609 164.422 164.423z" fill="#3c3b40"/><g fill="#313133"><path d="m256 282.518v105.735c28.488-.832 51.302-24.184 51.302-52.868s-22.814-52.036-51.302-52.867z"/><path d="m349.407 247.415c-4.395 0-8.592.792-12.493 2.257-13.581 5.049-23.243 18.135-23.243 33.479 0 19.719 15.997 35.716 35.735 35.716 1.94 0 3.821-.158 5.682-.455 17.026-2.712 30.034-17.481 30.034-35.26.001-19.74-15.996-35.737-35.715-35.737z"/><circle cx="300.132" cy="434.442" r="18.64"/></g></g></g></g><g><path d="m314.236 70.415c0 2.834-.205 5.606-.596 8.327-.736 5.162-2.155 10.111-4.157 14.743-.27.64-.557 1.267-.853 1.893-2.964 6.238-7.004 11.866-11.879 16.636-.392.387-.784.762-1.188 1.127-10.493 9.733-24.556 15.629-40.013 15.512-.002-.001-.004-.002-.006-.003l-.007-.007c-31.979-32.232-31.976-84.223.007-116.452.152-.009.305-.009.462-.009 1.928 0 3.822.091 5.702.283 13.598 1.314 25.812 7.304 35.044 16.353 4.875 4.775 8.919 10.408 11.879 16.645 2.455 5.167 4.174 10.76 5.014 16.632.386 2.718.591 5.5.591 8.32z" fill="#0076ff"/><path d="m209.394 70.423c0 32.161 20.865 58.232 46.608 58.232v-116.47c-25.743 0-46.608 26.071-46.608 58.238z" fill="#0092ff"/><path d="m197.764 70.417c0 1.031.025 2.057.08 3.076.092 1.774.264 3.524.516 5.249.835 5.875 2.554 11.467 5.009 16.636.632 1.332 1.314 2.64 2.044 3.916 2.683 4.69 6.004 8.969 9.834 12.719 2.241 2.192 4.659 4.205 7.225 6.016 9.362 6.611 20.761 10.522 33.069 10.62-7.471-.147-14.389-4.058-20.074-10.62-1.571-1.811-3.045-3.824-4.414-6.016-2.351-3.757-4.383-8.029-6.022-12.719-.448-1.277-.866-2.584-1.252-3.916-1.504-5.175-2.554-10.761-3.069-16.636-.153-1.725-.258-3.474-.307-5.249-.037-1.019-.055-2.044-.055-3.076 0-2.824.123-5.598.362-8.318.086-1.013.19-2.013.313-3.002.577-4.782 1.51-9.355 2.756-13.634 1.817-6.243 4.285-11.866 7.274-16.642 6.323-10.129 14.954-16.433 24.487-16.63-15.684.123-29.883 6.439-40.289 16.63-4.88 4.77-8.92 10.399-11.885 16.642-2.032 4.279-3.561 8.852-4.5 13.634-.196.988-.368 1.989-.509 3.002-.39 2.714-.593 5.494-.593 8.318z" fill="#00b9ff"/><path d="m256.003 78.109v14.936h11.866c4.172 0 7.434 3.415 7.471 7.587.031 3.441 1.437 6.551 3.701 8.816 2.284 2.284 5.439 3.696 8.926 3.696h7.594c.405-.368.798-.743 1.191-1.13 4.874-4.77 8.913-10.399 11.878-16.636.295-.626.583-1.252.853-1.891-.792-.288-1.645-.442-2.541-.442h-8.386c-4.185 0-7.379-3.439-7.466-7.624-.042-1.999-.868-3.804-2.19-5.12-1.351-1.357-3.217-2.192-5.279-2.192z" fill="#00ca7f"/><path d="m248.795 83.277c-.88 2.946 0 5.743 1.848 7.582 1.351 1.351 3.217 2.185 5.279 2.185h.08v-14.935h-.08c-3.242 0-6.199 2.061-7.127 5.168z" fill="#84f600"/><path d="m214.578 29.496h14.862c1.878 0 3.573.761 4.8 1.989 1.198 1.198 1.952 2.841 1.988 4.665.086 4.399 3.453 8.012 7.852 8.012h26.373c3.75 0 6.789-3.04 6.789-6.789v-1.087c0-1.878-.761-3.573-1.989-4.801-1.234-1.228-2.928-1.989-4.801-1.989-1.872 0-3.573-.761-4.801-1.989s-1.989-2.922-1.989-4.8c0-3.616-.694-7.072-1.958-10.239-1.879-.19-3.775-.282-5.703-.282-.154 0-.307 0-.46.006-16.027.125-30.503 6.718-40.965 17.303.002.001.002 0 .002.001z" fill="#00ca7f"/><path d="m220.711 62.099c-.239 2.72-.362 5.494-.362 8.318 0 1.031.018 2.057.055 3.076h9.495c3.608 0 6.832-2.562 7.341-6.134.635-4.45-2.799-8.262-7.119-8.262h-9.098c-.122.989-.226 1.989-.312 3.002z" fill="#84f600"/><path d="m197.764 70.417c0 1.031.025 2.057.08 3.076h22.56c-.037-1.019-.055-2.044-.055-3.076 0-2.824.123-5.598.362-8.318.086-1.013.19-2.013.313-3.002h-22.155c-.196.988-.368 1.989-.509 3.002-.393 2.714-.596 5.494-.596 8.318z" fill="#adff43"/><path d="m279.956 57.878c0 3.975 3.222 7.197 7.197 7.197h10.591c3.975 0 7.197-3.222 7.197-7.197 0-3.975-3.222-7.197-7.197-7.197h-10.591c-3.975 0-7.197 3.222-7.197 7.197z" fill="#00ca7f"/><path d="m236.921 99.294h-11.888c1.639 4.69 3.671 8.963 6.022 12.719 1.369 2.192 2.842 4.205 4.414 6.016h1.713c2.584 0 4.929-1.05 6.624-2.744 1.981-1.981 3.081-4.845 2.651-7.961-.644-4.664-4.827-8.03-9.536-8.03z" fill="#84f600"/><path d="m205.413 99.294c2.683 4.69 6.004 8.969 9.834 12.719 2.241 2.192 4.659 4.205 7.225 6.016h12.996c-1.571-1.811-3.045-3.824-4.414-6.016-2.351-3.757-4.383-8.029-6.022-12.719z" fill="#adff43"/><path d="m214.578 29.496h14.862c.387 0 .767.031 1.142.098 1.418.24 2.683.915 3.659 1.891 1.198 1.198 1.952 2.841 1.988 4.665.086 4.399 3.453 8.012 7.852 8.012h11.922v-31.977c-.154 0-.307 0-.46.006-16.027.125-30.503 6.718-40.965 17.303z" fill="#84f600"/><path d="m214.578 29.496h14.862c.387 0 .767.031 1.142.098.153-.258.313-.516.473-.773 6.323-10.129 14.954-16.433 24.487-16.63-16.027.125-30.503 6.718-40.965 17.303.001.002.001.001.001.002z" fill="#adff43"/></g><g><g><path d="m127.647 93.703h1.626c7.203 0 13.042-5.839 13.042-13.042v-1.626h9.297v1.626c0 7.203 5.839 13.042 13.042 13.042h1.626v9.297h-1.626c-7.203 0-13.042 5.839-13.042 13.042v1.626h-9.297v-1.626c0-7.203-5.839-13.042-13.042-13.042h-1.626z" fill="#fff"/></g></g><g><g><path d="m23.661 232.035h1.626c7.203 0 13.042-5.839 13.042-13.042v-1.626h9.297v1.626c0 7.203 5.839 13.042 13.042 13.042h1.626v9.297h-1.626c-7.203 0-13.042 5.839-13.042 13.042v1.626h-9.297v-1.626c0-7.203-5.839-13.042-13.042-13.042h-1.626z" fill="#fff"/></g></g><g><g><path d="m356.865 79.453h1.626c7.203 0 13.042-5.839 13.042-13.042v-1.626h9.297v1.626c0 7.203 5.839 13.042 13.042 13.042h1.626v9.297h-1.626c-7.203 0-13.042 5.839-13.042 13.042v1.626h-9.297v-1.626c0-7.203-5.839-13.042-13.042-13.042h-1.626z" fill="#fff"/></g></g><g><g><path d="m426.181 174.49h1.698c7.522 0 13.62-6.098 13.62-13.62v-1.698h9.709v1.698c0 7.522 6.098 13.62 13.62 13.62h1.698v9.709h-1.698c-7.522 0-13.62 6.098-13.62 13.62v1.698h-9.709v-1.698c0-7.522-6.098-13.62-13.62-13.62h-1.698z" fill="#fff"/></g></g></g></g></svg>