<svg id="Capa_1" enable-background="new 0 0 512 512" height="512" viewBox="0 0 512 512" width="512" xmlns="http://www.w3.org/2000/svg"><g><g><path d="m512 256c0 141.387-114.613 256-256 256-35.883 0-70.037-7.381-101.035-20.704l-.021-.011-95.296-71.008-.011-.011c-37.226-44.458-59.637-101.738-59.637-164.266 0-141.387 114.613-256 256-256s256 114.613 256 256z" fill="#654baa"/><g><g><path d="m512 256c0 65.237-24.405 124.779-64.576 169.984-13.472 15.168-28.725 28.715-45.419 40.331-41.418 28.8-91.733 45.685-146.005 45.685-35.883 0-70.037-7.381-101.035-20.704l-.021-.011-95.285-70.997-.021-.021c-37.217-44.448-59.638-101.739-59.638-164.267 0-46.219 12.245-89.568 33.675-126.997 44.128 77.066 127.168 129.002 222.325 129.002s178.208-51.936 222.325-129.003c21.43 37.43 33.675 80.779 33.675 126.998z" fill="#513390"/></g></g></g><g><g><g><path d="m356.576 246.219 20.946-8.81-20.946-8.814 19.124-12.284-22.159-5.046 16.683-15.433-22.699-1.094 13.729-18.108-22.544 2.875 10.383-20.217-21.708 6.734 6.734-21.704-20.217 10.379 2.875-22.544-18.108 13.729-1.094-22.699-15.433 16.687-5.046-22.159-12.283 19.119-8.81-20.946-8.814 20.946-12.283-19.119-5.046 22.159-15.433-16.687-1.093 22.699-18.108-13.729 2.875 22.544-20.217-10.383 6.734 21.708-21.708-6.734 10.383 20.217-22.544-2.875 13.729 18.108-22.699 1.094 16.683 15.433-22.159 5.046 19.124 12.284-20.946 8.814 20.946 8.81-19.127 12.284 22.159 5.046-16.683 15.433 22.699 1.094-13.729 18.108 22.544-2.875-10.383 20.217 21.708-6.734-6.734 21.708 20.217-10.383-2.875 22.544 18.108-13.729 1.093 22.699 15.433-16.683 5.046 22.159 12.283-19.124 8.814 20.946 8.81-20.946 12.283 19.124 5.046-22.159 15.433 16.683 1.094-22.699 18.108 13.729-2.875-22.54 20.217 10.379-6.734-21.708 21.708 6.734-10.383-20.217 22.544 2.879-13.729-18.112 22.699-1.094-16.683-15.433 22.159-5.046z" fill="#fdd425"/><path d="m353.541 211.265 22.159 5.046-19.124 12.283 20.947 8.815-20.947 8.81 19.124 12.284-22.159 5.046 16.683 15.433-22.699 1.094 13.729 18.112-22.544-2.88 10.383 20.217-21.708-6.733 6.734 21.708-20.217-10.379 2.875 22.54-18.108-13.73-1.094 22.7-15.433-16.683-5.046 22.159-12.284-19.124-8.81 20.946v-243.045l8.81 20.946 12.284-19.119 5.046 22.158 15.433-16.686 1.094 22.699 18.108-13.729-2.875 22.544 20.217-10.379-6.734 21.704 21.708-6.734-10.383 20.217 22.544-2.875-13.729 18.108" fill="#feb123"/><path d="m351.071 237.409c0 52.505-42.56 95.065-95.069 95.069h-.004c-52.505 0-95.069-42.564-95.069-95.069s42.564-95.069 95.069-95.069h.004c52.509.005 95.069 42.564 95.069 95.069z" fill="#feb123"/><path d="m351.071 237.409c0 52.505-42.56 95.065-95.069 95.069v-190.137c52.509.004 95.069 42.563 95.069 95.068z" fill="#fc9f0b"/></g><g><g><path d="m279.862 145.367c2.721.695 5.421 1.523 8.085 2.473 2.593.921 5.166 1.963 7.688 3.125 22.506-12.358 40.519-16.072 48.442-8.149 7.582 7.582 4.514 24.412-6.611 45.558-11.423 21.741-31.328 48.052-56.889 73.612-25.56 25.56-51.871 45.465-73.612 56.888-21.145 11.125-37.975 14.194-45.558 6.612-7.922-7.923-4.209-25.936 8.149-48.442-1.162-2.523-2.204-5.095-3.125-7.689-.95-2.664-1.772-5.357-2.48-8.078-26.566 40.356-36.317 75.476-21.804 89.988 14.513 14.513 49.646 4.762 90.003-21.819 20.479-13.478 42.298-31.272 63.457-52.431s38.96-42.985 52.438-63.464c26.581-40.356 36.324-75.483 21.811-89.995-14.511-14.513-49.637-4.77-89.994 21.811z" fill="#feb123"/><path d="m369.858 123.555c14.513 14.513 4.769 49.639-21.811 89.995-13.478 20.479-31.279 42.305-52.438 63.464l-15.03-15.03c25.56-25.56 45.465-51.871 56.889-73.612 11.125-21.145 14.194-37.975 6.611-45.558-7.922-7.923-25.936-4.209-48.442 8.149-2.523-1.162-5.095-2.204-7.688-3.125-2.665-.95-5.364-1.779-8.085-2.473 40.355-26.579 75.481-36.322 89.994-21.81z" fill="#fdd425"/></g><g><path d="m142.149 123.555c-14.513 14.513-4.769 49.639 21.811 89.995 13.478 20.479 31.279 42.305 52.438 63.464 21.159 21.16 42.978 38.953 63.457 52.431 40.356 26.581 75.49 36.331 90.002 21.819 14.513-14.513 4.762-49.632-21.804-89.988-.709 2.721-1.531 5.414-2.48 8.078-.921 2.594-1.963 5.166-3.125 7.689 12.358 22.506 16.072 40.519 8.149 48.442-7.582 7.582-24.412 4.514-45.557-6.612-21.741-11.423-48.052-31.328-73.612-56.888s-45.465-51.871-56.889-73.612c-11.125-21.145-14.194-37.975-6.611-45.558 7.923-7.923 25.936-4.209 48.442 8.149 2.523-1.162 5.095-2.204 7.688-3.125 2.664-.95 5.364-1.779 8.085-2.473-40.355-26.58-75.481-36.323-89.994-21.811z" fill="#fdd425"/><path d="m142.149 123.555c-14.513 14.513-4.769 49.639 21.811 89.995 13.478 20.479 31.279 42.305 52.438 63.464l15.03-15.03c-25.56-25.56-45.465-51.871-56.889-73.612-11.125-21.145-14.194-37.975-6.611-45.558 7.923-7.923 25.936-4.209 48.442 8.149 2.523-1.162 5.095-2.204 7.688-3.125 2.664-.95 5.364-1.779 8.085-2.473-40.355-26.579-75.481-36.322-89.994-21.81z" fill="#ffe576"/></g></g></g><g><g><path d="m484.688 155.698h-1.698c-7.522 0-13.62-6.098-13.62-13.62v-1.698h-9.709v1.698c0 7.522-6.098 13.62-13.62 13.62h-1.698v9.709h1.698c7.522 0 13.62 6.098 13.62 13.62v1.698h9.709v-1.698c0-7.522 6.098-13.62 13.62-13.62h1.698z" fill="#fff"/></g></g><g><g><path d="m80.936 178.968h-1.698c-7.522 0-13.62-6.098-13.62-13.62v-1.698h-9.709v1.698c0 7.522-6.098 13.62-13.62 13.62h-1.699v9.709h1.698c7.522 0 13.62 6.098 13.62 13.62v1.698h9.709v-1.698c0-7.522 6.098-13.62 13.62-13.62h1.698v-9.709z" fill="#fff"/></g></g><g><g><path d="m276.173 422.544h-1.698c-7.522 0-13.62-6.098-13.62-13.62v-1.698h-9.709v1.698c0 7.522-6.098 13.62-13.62 13.62h-1.698v9.709h1.698c7.522 0 13.62 6.098 13.62 13.62v1.698h9.709v-1.698c0-7.522 6.098-13.62 13.62-13.62h1.698z" fill="#fff"/></g></g><g><g><path d="m458.541 302.762h-1.698c-7.522 0-13.62-6.098-13.62-13.62v-1.698h-9.709v1.698c0 7.522-6.098 13.62-13.62 13.62h-1.698v9.709h1.698c7.522 0 13.62 6.098 13.62 13.62v1.698h9.709v-1.698c0-7.522 6.098-13.62 13.62-13.62h1.698z" fill="#fff"/></g></g><g><g><path d="m92.215 343.107h-1.698c-7.522 0-13.62-6.098-13.62-13.62v-1.698h-9.709v1.698c0 7.522-6.098 13.62-13.62 13.62h-1.698v9.709h1.698c7.522 0 13.62 6.098 13.62 13.62v1.698h9.709v-1.698c0-7.522 6.098-13.62 13.62-13.62h1.698z" fill="#fff"/></g></g><g><path d="m166.347 456.32c0 2.891-.203 5.728-.608 8.501-.843 5.995-2.603 11.701-5.109 16.981-1.589 3.349-3.488 6.528-5.653 9.493-17.067-7.339-33.173-16.469-48.075-27.168-9.173-6.581-17.899-13.76-26.101-21.472 2.891-17.152 11.52-33.44 25.632-45.771h.011c16.384-.128 31.232 6.368 42.059 16.981 4.981 4.875 9.109 10.613 12.128 16.981 2.507 5.28 4.267 10.987 5.12 16.981.393 2.776.596 5.613.596 8.493z" fill="#008c92"/><path d="m106.901 396.875v67.253c-12.16-8.725-23.531-18.496-33.963-29.173-2.88-2.933-5.685-5.952-8.405-9.024 8.598-17.398 24.352-29.056 42.368-29.056z" fill="#00ca7f"/><path d="m106.432 396.885c-9.728.203-18.539 6.635-24.992 16.981-3.051 4.875-5.579 10.613-7.424 16.981-.395 1.344-.747 2.709-1.077 4.107-4.619-4.715-9.056-9.621-13.301-14.688 1.739-2.272 3.638-4.405 5.675-6.4 10.612-10.41 25.108-16.853 41.119-16.981z" fill="#84f600"/><g fill="#007691"><path d="m65.307 413.862h83.195c-10.722-10.509-25.398-16.983-41.597-16.983-.157 0-.313 0-.47.006-16.011.126-30.506 6.574-41.128 16.977z"/><path d="m117.783 439.341c0 4.69 3.802 8.491 8.491 8.491h39.473c-.859-5.997-2.613-11.706-5.12-16.982h-34.354c-4.688 0-8.49 3.802-8.49 8.491z"/><path d="m165.749 464.821c-.864 5.995-2.613 11.701-5.12 16.981h-25.355c-9.504-5.088-18.656-10.763-27.392-16.981z"/></g><g fill="#008c92"><path d="m65.307 413.862h41.598v-16.983c-.157 0-.313 0-.47.006-16.011.126-30.506 6.574-41.128 16.977z"/><path d="m98.048 439.339c0 4.693-3.808 8.491-8.491 8.491h-3.083c-1.92-1.696-3.808-3.424-5.675-5.173-2.677-2.507-5.301-5.077-7.861-7.701-1.323-1.355-2.635-2.72-3.936-4.107h20.555c2.347 0 4.459.949 6.006 2.485 1.536 1.546 2.485 3.658 2.485 6.005z"/></g><g><path d="m74.016 430.848c-.395 1.344-.747 2.709-1.077 4.107-1.323-1.355-2.635-2.72-3.936-4.107z" fill="#00ca7f"/></g><path d="m65.307 413.862h16.13c6.455-10.34 15.265-16.776 24.997-16.976-16.01.125-30.505 6.573-41.127 16.976z" fill="#00ca7f"/></g><g><path d="m424.588 414.228c0 2.236-.161 4.434-.472 6.587-.66 4.651-2.02 9.074-3.962 13.164-2.348 4.939-5.544 9.39-9.401 13.169-8.392 8.229-19.905 13.263-32.605 13.168-.003-.001-.007-.003-.01-.004-25.312-25.509-25.312-66.658 0-92.167.003-.001.006-.003.01-.004 12.7-.096 24.213 4.944 32.605 13.168 3.857 3.779 7.059 8.235 9.401 13.169 1.942 4.09 3.302 8.518 3.968 13.164.305 2.147.466 4.35.466 6.586z" fill="#bf005e"/><path d="m341.592 414.228c0 25.454 16.524 46.087 36.908 46.087v-92.175c-20.384.001-36.908 20.634-36.908 46.088z" fill="#ea005c"/><path d="m332.411 414.226c0 2.24.16 4.436.471 6.588.661 4.649 2.021 9.075 3.964 13.166 2.342 4.936 5.543 9.391 9.401 13.166 8.235 8.07 19.477 13.069 31.89 13.166-7.545-.151-14.376-5.145-19.38-13.166-2.366-3.78-4.324-8.23-5.757-13.166-1.19-4.096-2.021-8.517-2.429-13.166-.189-2.152-.286-4.353-.286-6.588s.097-4.431.286-6.583c.408-4.649 1.239-9.075 2.429-13.166 1.438-4.941 3.391-9.391 5.757-13.171 5.004-8.016 11.835-13.006 19.38-13.161-12.413.097-23.65 5.096-31.885 13.161-3.862 3.775-7.059 8.23-9.406 13.171-1.943 4.091-3.304 8.517-3.964 13.166-.31 2.148-.471 4.348-.471 6.583z" fill="#ff3d3b"/><g><path d="m346.253 381.306h64.499c-8.313-8.147-19.691-13.166-32.249-13.166-.122 0-.243 0-.364.005-12.414.097-23.651 5.096-31.886 13.161z" fill="#a8055b"/><path d="m386.936 401.06c0 3.636 2.947 6.583 6.583 6.583h30.603c-.666-4.649-2.026-9.075-3.969-13.166h-26.633c-3.636 0-6.584 2.947-6.584 6.583z" fill="#a8055b"/><path d="m332.885 407.644h32.167c3.634 0 6.583-2.949 6.583-6.583 0-1.817-.738-3.464-1.929-4.654-1.19-1.195-2.837-1.929-4.654-1.929h-28.203c-1.943 4.091-3.303 8.517-3.964 13.166z" fill="#00ca7f"/><g fill="#a8055b"><path d="m362.647 427.398c0 3.634 2.944 6.583 6.583 6.583h50.925c1.943-4.091 3.304-8.517 3.965-13.166h-54.89c-1.817 0-3.464.738-4.654 1.929-1.195 1.19-1.929 2.832-1.929 4.654z"/><path d="m346.248 447.146c8.235 8.07 19.477 13.069 31.89 13.166.121.005.243.005.364.005 12.559 0 23.937-5.019 32.249-13.171z"/></g></g><g fill="#bf005e"><path d="m346.253 381.306h32.25v-13.166c-.122 0-.243 0-.364.005-12.414.097-23.651 5.096-31.886 13.161z"/><path d="m378.502 447.146h-32.254c8.235 8.07 19.477 13.069 31.89 13.166.121.005.243.005.364.005z"/><path d="m362.647 427.398c0 3.634 2.944 6.583 6.583 6.583h9.275v-13.166h-9.275c-1.817 0-3.464.738-4.654 1.929-1.195 1.19-1.929 2.832-1.929 4.654z"/><path d="m359.244 427.397c0 3.636-2.947 6.583-6.583 6.583h-15.814c-1.943-4.091-3.304-8.517-3.964-13.166h19.778c3.636 0 6.583 2.948 6.583 6.583z"/><path d="m332.885 407.644h32.167c3.634 0 6.583-2.949 6.583-6.583 0-1.817-.738-3.464-1.929-4.654-1.19-1.195-2.837-1.929-4.654-1.929h-28.203c-1.943 4.091-3.303 8.517-3.964 13.166z"/></g><g fill="#ea005c"><g><path d="m346.248 447.146c8.235 8.07 19.477 13.069 31.89 13.166-7.545-.151-14.376-5.145-19.38-13.166z"/><path d="m332.883 420.814c.661 4.649 2.021 9.075 3.964 13.166h16.154c-1.19-4.096-2.021-8.517-2.429-13.166z"/><path d="m332.883 407.643h17.689c.408-4.649 1.239-9.075 2.429-13.166h-16.154c-1.943 4.091-3.304 8.517-3.964 13.166z"/></g><path d="m346.253 381.306h12.505c5.004-8.016 11.835-13.006 19.38-13.161-12.413.097-23.65 5.096-31.885 13.161z"/></g></g><g><path d="m295.476 53.121c0 1.949-.139 3.86-.41 5.733-.575 4.046-1.759 7.898-3.45 11.458-2.042 4.296-4.824 8.173-8.181 11.458-7.303 7.162-17.324 11.545-28.376 11.461-.003-.001-.005-.002-.007-.003-22.003-22.176-21.932-57.969.159-80.057l.158-.158c10.93 0 20.832 4.368 28.066 11.458 3.357 3.29 6.143 7.167 8.181 11.462 1.691 3.56 2.875 7.412 3.454 11.458.266 1.87.406 3.785.406 5.73z" fill="#0076ff"/><path d="m223.04 53.122c0 22.152 14.473 40.109 32.327 40.109v-80.218c-17.855 0-32.327 17.956-32.327 40.109z" fill="#0092ff"/><path d="m215.256 53.12c0 1.949.14 3.86.41 5.733.575 4.046 1.759 7.898 3.45 11.458 2.038 4.296 4.824 8.173 8.181 11.458 7.167 7.023 16.951 11.374 27.753 11.458-6.566-.131-12.511-4.478-16.866-11.458-2.059-3.289-3.763-7.162-5.01-11.458-1.036-3.564-1.759-7.412-2.114-11.458-.165-1.873-.249-3.788-.249-5.733s.085-3.856.249-5.729c.355-4.046 1.078-7.898 2.114-11.458 1.251-4.3 2.951-8.173 5.01-11.462 4.355-6.976 10.3-11.319 16.866-11.454-10.803.085-20.583 4.435-27.749 11.454-3.361 3.285-6.143 7.162-8.186 11.462-1.691 3.56-2.875 7.412-3.45 11.458-.269 1.869-.409 3.784-.409 5.729z" fill="#00b9ff"/><g><g fill="#054bfd"><path d="m227.302 24.47h56.132c-7.234-7.091-17.136-11.458-28.066-11.458-.106 0-.211 0-.317.004-10.803.085-20.582 4.436-27.749 11.454z"/><path d="m275.046 41.662c0 3.164 2.565 5.729 5.729 5.729h14.296c-.579-4.046-1.763-7.898-3.454-11.458h-10.841c-3.165 0-5.73 2.565-5.73 5.729z"/><path d="m265.79 35.933c3.164 0 5.729 2.565 5.729 5.729 0 3.164-2.565 5.729-5.729 5.729h-.162c-3.256 0-5.877-2.716-5.723-6.006.146-3.082 2.8-5.452 5.885-5.452z"/></g><path d="m215.666 47.39h27.725c2.765 0 5.334-1.834 5.879-4.545.41-2.04-.27-3.945-1.559-5.234-1.036-1.036-2.469-1.679-4.051-1.679h-24.544c-1.691 3.56-2.875 7.412-3.45 11.458z" fill="#00ca7f"/><path d="m278.238 58.853h16.828c-.575 4.046-1.759 7.898-3.45 11.458h-13.378c-3.164 0-5.729-2.565-5.729-5.729 0-3.164 2.565-5.729 5.729-5.729z" fill="#054bfd"/><path d="m241.686 65.765c.545 2.711 3.114 4.546 5.879 4.546h15.447c2.495 0 4.863-1.499 5.612-3.879 1.242-3.947-1.676-7.579-5.439-7.579h-15.889c-1.581 0-3.015.643-4.05 1.679-1.29 1.288-1.97 3.193-1.56 5.233z" fill="#054bfd"/><path d="m227.298 81.77c7.167 7.023 16.951 11.374 27.753 11.458.106.004.211.004.317.004 10.93 0 20.832-4.368 28.066-11.462z" fill="#054bfd"/></g><g fill="#0076ff"><path d="m227.302 24.47h28.066v-11.458c-.106 0-.211 0-.317.004-10.803.085-20.582 4.436-27.749 11.454z"/><path d="m255.368 81.77h-28.07c7.167 7.023 16.951 11.374 27.753 11.458.106.004.211.004.317.004z"/><path d="m241.686 65.765c.545 2.711 3.114 4.546 5.879 4.546h7.803v-11.459h-8.071c-1.581 0-3.015.643-4.05 1.679-1.291 1.289-1.971 3.194-1.561 5.234z"/><path d="m238.608 64.582c0 3.164-2.565 5.729-5.729 5.729h-13.763c-1.691-3.56-2.875-7.412-3.45-11.458h17.213c3.164 0 5.729 2.565 5.729 5.729z"/><path d="m215.666 47.39h27.725c2.765 0 5.334-1.834 5.879-4.545.41-2.04-.27-3.945-1.559-5.234-1.036-1.036-2.469-1.679-4.051-1.679h-24.544c-1.691 3.56-2.875 7.412-3.45 11.458z"/></g><g fill="#0092ff"><g><path d="m227.298 81.77c7.167 7.023 16.951 11.374 27.753 11.458-6.566-.131-12.511-4.478-16.866-11.458z"/><path d="m215.666 58.853c.575 4.046 1.759 7.898 3.45 11.458h14.059c-1.036-3.564-1.759-7.412-2.114-11.458z"/><path d="m215.666 47.391h15.395c.355-4.046 1.078-7.898 2.114-11.458h-14.059c-1.691 3.56-2.874 7.412-3.45 11.458z"/></g><path d="m227.302 24.47h10.883c4.355-6.976 10.3-11.319 16.866-11.454-10.803.085-20.582 4.436-27.749 11.454z"/></g></g></g></g></svg>